<svg id="visual" viewBox="0 0 960 540" width="960" height="540" xmlns="http://www.w3.org/2000/svg" xmlns:xlink="http://www.w3.org/1999/xlink" version="1.1"><path d="M0 174L14.5 175.8C29 177.7 58 181.3 87.2 172.3C116.3 163.3 145.7 141.7 174.8 137.2C204 132.7 233 145.3 262 152.5C291 159.7 320 161.3 349 154C378 146.7 407 130.3 436.2 118.7C465.3 107 494.7 100 523.8 106.3C553 112.7 582 132.3 611 144.8C640 157.3 669 162.7 698 162.7C727 162.7 756 157.3 785.2 156.5C814.3 155.7 843.7 159.3 872.8 163.8C902 168.3 931 173.7 945.5 176.3L960 179L960 0L945.5 0C931 0 902 0 872.8 0C843.7 0 814.3 0 785.2 0C756 0 727 0 698 0C669 0 640 0 611 0C582 0 553 0 523.8 0C494.7 0 465.3 0 436.2 0C407 0 378 0 349 0C320 0 291 0 262 0C233 0 204 0 174.8 0C145.7 0 116.3 0 87.2 0C58 0 29 0 14.5 0L0 0Z" fill="#6198ff"></path><path d="M0 330L14.5 337.3C29 344.7 58 359.3 87.2 350.3C116.3 341.3 145.7 308.7 174.8 299.7C204 290.7 233 305.3 262 303.7C291 302 320 284 349 274C378 264 407 262 436.2 263.7C465.3 265.3 494.7 270.7 523.8 286C553 301.3 582 326.7 611 320.5C640 314.3 669 276.7 698 269.5C727 262.3 756 285.7 785.2 297.3C814.3 309 843.7 309 872.8 317C902 325 931 341 945.5 349L960 357L960 177L945.5 174.3C931 171.7 902 166.3 872.8 161.8C843.7 157.3 814.3 153.7 785.2 154.5C756 155.3 727 160.7 698 160.7C669 160.7 640 155.3 611 142.8C582 130.3 553 110.7 523.8 104.3C494.7 98 465.3 105 436.2 116.7C407 128.3 378 144.7 349 152C320 159.3 291 157.7 262 150.5C233 143.3 204 130.7 174.8 135.2C145.7 139.7 116.3 161.3 87.2 170.3C58 179.3 29 175.7 14.5 173.8L0 172Z" fill="#3c80ff"></path><path d="M0 379L14.5 386.2C29 393.3 58 407.7 87.2 405.8C116.3 404 145.7 386 174.8 374.3C204 362.7 233 357.3 262 351C291 344.7 320 337.3 349 334.7C378 332 407 334 436.2 338.5C465.3 343 494.7 350 523.8 359C553 368 582 379 611 372.8C640 366.7 669 343.3 698 345.2C727 347 756 374 785.2 382C814.3 390 843.7 379 872.8 377.2C902 375.3 931 382.7 945.5 386.3L960 390L960 355L945.5 347C931 339 902 323 872.8 315C843.7 307 814.3 307 785.2 295.3C756 283.7 727 260.3 698 267.5C669 274.7 640 312.3 611 318.5C582 324.7 553 299.3 523.8 284C494.7 268.7 465.3 263.3 436.2 261.7C407 260 378 262 349 272C320 282 291 300 262 301.7C233 303.3 204 288.7 174.8 297.7C145.7 306.7 116.3 339.3 87.2 348.3C58 357.3 29 342.7 14.5 335.3L0 328Z" fill="#0066ff"></path><path d="M0 444L14.5 448.5C29 453 58 462 87.2 466.5C116.3 471 145.7 471 174.8 469.2C204 467.3 233 463.7 262 452C291 440.3 320 420.7 349 411.7C378 402.7 407 404.3 436.2 410.5C465.3 416.7 494.7 427.3 523.8 434.5C553 441.7 582 445.3 611 440.8C640 436.3 669 423.7 698 421.8C727 420 756 429 785.2 432.7C814.3 436.3 843.7 434.7 872.8 438.3C902 442 931 451 945.5 455.5L960 460L960 388L945.5 384.3C931 380.7 902 373.3 872.8 375.2C843.7 377 814.3 388 785.2 380C756 372 727 345 698 343.2C669 341.3 640 364.7 611 370.8C582 377 553 366 523.8 357C494.7 348 465.3 341 436.2 336.5C407 332 378 330 349 332.7C320 335.3 291 342.7 262 349C233 355.3 204 360.7 174.8 372.3C145.7 384 116.3 402 87.2 403.8C58 405.7 29 391.3 14.5 384.2L0 377Z" fill="#0059dd"></path><path d="M0 541L14.5 541C29 541 58 541 87.2 541C116.3 541 145.7 541 174.8 541C204 541 233 541 262 541C291 541 320 541 349 541C378 541 407 541 436.2 541C465.3 541 494.7 541 523.8 541C553 541 582 541 611 541C640 541 669 541 698 541C727 541 756 541 785.2 541C814.3 541 843.7 541 872.8 541C902 541 931 541 945.5 541L960 541L960 458L945.5 453.5C931 449 902 440 872.8 436.3C843.7 432.7 814.3 434.3 785.2 430.7C756 427 727 418 698 419.8C669 421.7 640 434.3 611 438.8C582 443.3 553 439.7 523.8 432.5C494.7 425.3 465.3 414.7 436.2 408.5C407 402.3 378 400.7 349 409.7C320 418.7 291 438.3 262 450C233 461.7 204 465.3 174.8 467.2C145.7 469 116.3 469 87.2 464.5C58 460 29 451 14.5 446.5L0 442Z" fill="#004cbb"></path></svg>